# xmcd
#
# Track frame offsets: 
#        150
#        17656
#        38548
#        56014
#        76212
#
# Disc length: 1288 seconds
#
# Revision: 0
# Processed by: cddbd v1.5.1PL2 Copyright (c) Steve Scherf et al.
# Submitted via: ExactAudioCopy v0.95b3
#
DISCID=2e050605
DTITLE=Ruby Dee and the Snakehandlers - Five For The Road
DYEAR=2003
DGENRE=Country
TTITLE0=So Long
TTITLE1=Just One Day
TTITLE2=Now I Want You (Out of My Head)
TTITLE3=Tell Me Why (Collier, Philippa)
TTITLE4=Walkin' Lie
EXTD=
EXTT0=
EXTT1=
EXTT2=
EXTT3=
EXTT4=
PLAYORDER=
